<svg width="48" height="48" viewBox="0 0 48 48" fill="none" xmlns="http://www.w3.org/2000/svg">
<path d="M24 39.29C21.298 37.388 18.17 36.176 14.89 35.768C12.5637 35.2954 10.1936 35.0722 7.82 35.102C7.51628 35.1047 7.21505 35.0471 6.93368 34.9327C6.65232 34.8183 6.39641 34.6493 6.18071 34.4355C5.96501 34.2217 5.7938 33.9672 5.67697 33.6868C5.56014 33.4065 5.49999 33.1058 5.5 32.802L5.542 11.016C5.54072 10.4315 5.76207 9.86837 6.16105 9.44115C6.56004 9.01393 7.10672 8.75466 7.69 8.71603C10.1063 8.668 12.5206 8.88394 14.89 9.36003C18.1664 9.78274 21.292 10.9918 24 12.884M24 39.29V12.884M24 39.29C26.702 37.388 29.83 36.176 33.11 35.768C35.4363 35.2954 37.8064 35.0722 40.18 35.102C40.4837 35.1047 40.785 35.0471 41.0663 34.9327C41.3477 34.8183 41.6036 34.6493 41.8193 34.4355C42.035 34.2217 42.2062 33.9672 42.323 33.6868C42.4399 33.4065 42.5 33.1058 42.5 32.802L42.456 11.016C42.4573 10.4318 42.2362 9.86897 41.8377 9.4418C41.4391 9.01463 40.8929 8.75515 40.31 8.71603C37.8937 8.668 35.4794 8.88394 33.11 9.36003C29.8336 9.78274 26.708 10.9918 24 12.884" stroke="black" stroke-width="2" stroke-linecap="round" stroke-linejoin="round"/>
<path d="M10.1251 36.077C13.5436 36.077 15.6941 36.7375 24 39.077V12.9316C24 12.9316 23.9478 8.48397 5.5 8.93155V35.077C6.21747 35.9242 7.34258 36.0947 10.1251 36.077ZM20.6088 12.7347C22.4515 12.7347 22.7666 13.7347 22.7666 13.7347V16.9886C22.7666 16.9886 22.4515 15.9886 20.6088 15.9886V12.7347ZM20.6088 17.7917C22.4515 17.7917 22.7666 18.7917 22.7666 18.7917V21.0457C21.9239 21.0457 22.4515 20.0457 20.6088 20.0457V17.7917ZM20.6088 21.8488C22.4515 21.8488 22.7666 22.8488 22.7666 22.8488V25.1027C22.7666 25.1027 22.4515 24.1027 20.6088 24.1027V21.8488ZM20.6088 25.9059C22.4515 25.9059 22.7666 26.9059 22.7666 26.9059V29.1598C22.7666 29.1598 22.4515 28.1598 20.6088 28.1598V25.9059ZM20.6088 29.9629C22.4515 29.9629 22.7666 30.9629 22.7666 30.9629V33.2168C22.7666 33.2168 22.4515 32.2168 20.6088 32.2168V29.9629ZM20.6088 34.02C22.4515 34.02 22.7666 35.02 22.7666 35.02V37.2739C22.7666 37.2739 22.4515 36.2739 20.6088 36.2739V34.02ZM10.1251 19.8488V10.7347C16.7374 10.7347 19.3749 12.7347 19.3749 12.7347V24.1027C19.3749 24.1027 16.7374 22.1027 10.1251 22.1027V19.8488ZM10.1251 32.02V23.9059C16.7374 23.9059 19.3749 25.9059 19.3749 25.9059V36.2739C19.3749 36.2739 16.7374 34.2739 10.1251 34.2739V32.02ZM6.73337 10.7347H8.89177V13.9886H6.73337V10.7347ZM6.73337 15.7917H8.89177V18.0457H6.73337V15.7917ZM6.73337 19.8488H8.89177V22.1027H6.73337V19.8488ZM6.73337 23.9059H8.89177V26.1598H6.73337V23.9059ZM6.73337 27.9629H8.89177V30.2168H6.73337V27.9629ZM6.73337 32.02H8.89177V34.2739H6.73337V32.02Z" fill="black"/>
<path fill-rule="evenodd" clip-rule="evenodd" d="M25.2705 38.7189C32.5375 36.6693 34.6377 36.077 37.8749 36.077C40.6574 36.0947 41.7825 35.9242 42.5 35.077V8.93155C24.0522 8.48397 24 12.9316 24 12.9316V39.077C24.4404 38.953 24.8635 38.8337 25.2705 38.7189ZM25.2334 13.7347C25.2334 13.7347 25.5485 12.7347 27.3912 12.7347V15.9886C25.5485 15.9886 25.2334 16.9886 25.2334 16.9886V13.7347ZM25.2334 18.7917C25.2334 18.7917 25.5485 17.7917 27.3912 17.7917V20.0457C26.2919 20.0457 26.0362 20.4016 25.8298 20.6887C25.6903 20.8829 25.5733 21.0457 25.2334 21.0457V18.7917ZM25.2334 22.8488C25.2334 22.8488 25.5485 21.8488 27.3912 21.8488V24.1027C25.5485 24.1027 25.2334 25.1027 25.2334 25.1027V22.8488ZM25.2334 26.9059C25.2334 26.9059 25.5485 25.9059 27.3912 25.9059V28.1598C25.5485 28.1598 25.2334 29.1598 25.2334 29.1598V26.9059ZM25.2334 30.9629C25.2334 30.9629 25.5485 29.9629 27.3912 29.9629V32.2168C25.5485 32.2168 25.2334 33.2168 25.2334 33.2168V30.9629ZM25.2334 35.02C25.2334 35.02 25.5485 34.02 27.3912 34.02V36.2739C25.5485 36.2739 25.2334 37.2739 25.2334 37.2739V35.02ZM39.1082 10.7347H41.2666V13.9886H39.1082V10.7347ZM39.1082 15.7917H41.2666V18.0457H39.1082V15.7917ZM39.1082 19.8488H41.2666V22.1027H39.1082V19.8488ZM39.1082 23.9059H41.2666V26.1598H39.1082V23.9059ZM39.1082 27.9629H41.2666V30.2168H39.1082V27.9629ZM39.1082 32.02H41.2666V34.2739H39.1082V32.02ZM37.8749 10.7347V19.8488V23.9059V32.02V34.2739C31.2626 34.2739 28.6251 36.2739 28.6251 36.2739V25.1027V12.7347C28.6251 12.7347 31.2626 10.7347 37.8749 10.7347Z" fill="black"/>
<path d="M35.6494 20.236C35.7269 20.1939 35.8217 20.1958 35.8975 20.2408C35.9731 20.2859 36.0195 20.3676 36.0195 20.4557V26.4557C36.0195 26.5437 35.9731 26.6254 35.8975 26.6705C35.8217 26.7156 35.7269 26.7175 35.6494 26.6754L30.1309 23.6754C30.0504 23.6317 30 23.5473 30 23.4557C30 23.3641 30.0504 23.2797 30.1309 23.236L35.6494 20.236Z" fill="black" stroke="black" stroke-width="0.5" stroke-linejoin="round"/>
</svg>
