<svg width="162" height="48" viewBox="0 0 162 48" fill="none" xmlns="http://www.w3.org/2000/svg">
<path d="M24 39.29C21.298 37.388 18.17 36.176 14.89 35.768C12.5637 35.2954 10.1936 35.0722 7.82 35.102C7.51628 35.1047 7.21505 35.0471 6.93368 34.9327C6.65232 34.8183 6.39641 34.6493 6.18071 34.4355C5.96501 34.2217 5.7938 33.9672 5.67697 33.6868C5.56014 33.4065 5.49999 33.1058 5.5 32.802L5.542 11.016C5.54072 10.4315 5.76207 9.86837 6.16105 9.44115C6.56004 9.01393 7.10672 8.75466 7.69 8.71603C10.1063 8.668 12.5206 8.88394 14.89 9.36003C18.1664 9.78274 21.292 10.9918 24 12.884M24 39.29V12.884M24 39.29C26.702 37.388 29.83 36.176 33.11 35.768C35.4363 35.2954 37.8064 35.0722 40.18 35.102C40.4837 35.1047 40.785 35.0471 41.0663 34.9327C41.3477 34.8183 41.6036 34.6493 41.8193 34.4355C42.035 34.2217 42.2062 33.9672 42.323 33.6868C42.4399 33.4065 42.5 33.1058 42.5 32.802L42.456 11.016C42.4573 10.4318 42.2362 9.86897 41.8377 9.4418C41.4391 9.01463 40.8929 8.75515 40.31 8.71603C37.8937 8.668 35.4794 8.88394 33.11 9.36003C29.8336 9.78274 26.708 10.9918 24 12.884" stroke="black" stroke-width="2" stroke-linecap="round" stroke-linejoin="round"/>
<path d="M10.1251 36.077C13.5436 36.077 15.6941 36.7375 24 39.077V12.9316C24 12.9316 23.9478 8.48397 5.5 8.93155V35.077C6.21747 35.9242 7.34258 36.0947 10.1251 36.077ZM20.6088 12.7347C22.4515 12.7347 22.7666 13.7347 22.7666 13.7347V16.9886C22.7666 16.9886 22.4515 15.9886 20.6088 15.9886V12.7347ZM20.6088 17.7917C22.4515 17.7917 22.7666 18.7917 22.7666 18.7917V21.0457C21.9239 21.0457 22.4515 20.0457 20.6088 20.0457V17.7917ZM20.6088 21.8488C22.4515 21.8488 22.7666 22.8488 22.7666 22.8488V25.1027C22.7666 25.1027 22.4515 24.1027 20.6088 24.1027V21.8488ZM20.6088 25.9059C22.4515 25.9059 22.7666 26.9059 22.7666 26.9059V29.1598C22.7666 29.1598 22.4515 28.1598 20.6088 28.1598V25.9059ZM20.6088 29.9629C22.4515 29.9629 22.7666 30.9629 22.7666 30.9629V33.2168C22.7666 33.2168 22.4515 32.2168 20.6088 32.2168V29.9629ZM20.6088 34.02C22.4515 34.02 22.7666 35.02 22.7666 35.02V37.2739C22.7666 37.2739 22.4515 36.2739 20.6088 36.2739V34.02ZM10.1251 19.8488V10.7347C16.7374 10.7347 19.3749 12.7347 19.3749 12.7347V24.1027C19.3749 24.1027 16.7374 22.1027 10.1251 22.1027V19.8488ZM10.1251 32.02V23.9059C16.7374 23.9059 19.3749 25.9059 19.3749 25.9059V36.2739C19.3749 36.2739 16.7374 34.2739 10.1251 34.2739V32.02ZM6.73337 10.7347H8.89177V13.9886H6.73337V10.7347ZM6.73337 15.7917H8.89177V18.0457H6.73337V15.7917ZM6.73337 19.8488H8.89177V22.1027H6.73337V19.8488ZM6.73337 23.9059H8.89177V26.1598H6.73337V23.9059ZM6.73337 27.9629H8.89177V30.2168H6.73337V27.9629ZM6.73337 32.02H8.89177V34.2739H6.73337V32.02Z" fill="black"/>
<path fill-rule="evenodd" clip-rule="evenodd" d="M25.2705 38.7189C32.5375 36.6693 34.6377 36.077 37.8749 36.077C40.6574 36.0947 41.7825 35.9242 42.5 35.077V8.93155C24.0522 8.48397 24 12.9316 24 12.9316V39.077C24.4404 38.953 24.8635 38.8337 25.2705 38.7189ZM25.2334 13.7347C25.2334 13.7347 25.5485 12.7347 27.3912 12.7347V15.9886C25.5485 15.9886 25.2334 16.9886 25.2334 16.9886V13.7347ZM25.2334 18.7917C25.2334 18.7917 25.5485 17.7917 27.3912 17.7917V20.0457C26.2919 20.0457 26.0362 20.4016 25.8298 20.6887C25.6903 20.8829 25.5733 21.0457 25.2334 21.0457V18.7917ZM25.2334 22.8488C25.2334 22.8488 25.5485 21.8488 27.3912 21.8488V24.1027C25.5485 24.1027 25.2334 25.1027 25.2334 25.1027V22.8488ZM25.2334 26.9059C25.2334 26.9059 25.5485 25.9059 27.3912 25.9059V28.1598C25.5485 28.1598 25.2334 29.1598 25.2334 29.1598V26.9059ZM25.2334 30.9629C25.2334 30.9629 25.5485 29.9629 27.3912 29.9629V32.2168C25.5485 32.2168 25.2334 33.2168 25.2334 33.2168V30.9629ZM25.2334 35.02C25.2334 35.02 25.5485 34.02 27.3912 34.02V36.2739C25.5485 36.2739 25.2334 37.2739 25.2334 37.2739V35.02ZM39.1082 10.7347H41.2666V13.9886H39.1082V10.7347ZM39.1082 15.7917H41.2666V18.0457H39.1082V15.7917ZM39.1082 19.8488H41.2666V22.1027H39.1082V19.8488ZM39.1082 23.9059H41.2666V26.1598H39.1082V23.9059ZM39.1082 27.9629H41.2666V30.2168H39.1082V27.9629ZM39.1082 32.02H41.2666V34.2739H39.1082V32.02ZM37.8749 10.7347V19.8488V23.9059V32.02V34.2739C31.2626 34.2739 28.6251 36.2739 28.6251 36.2739V25.1027V12.7347C28.6251 12.7347 31.2626 10.7347 37.8749 10.7347Z" fill="black"/>
<path d="M35.6494 20.2361C35.7269 20.194 35.8217 20.1959 35.8975 20.241C35.9731 20.2861 36.0195 20.3678 36.0195 20.4558V26.4558C36.0195 26.5439 35.9731 26.6256 35.8975 26.6707C35.8217 26.7157 35.7269 26.7176 35.6494 26.6755L30.1309 23.6755C30.0504 23.6318 30 23.5474 30 23.4558C30 23.3642 30.0504 23.2798 30.1309 23.2361L35.6494 20.2361Z" fill="black" stroke="black" stroke-width="0.5" stroke-linejoin="round"/>
<path d="M51.8511 30.834V17.2426H56.2539L59.4316 26.5077L62.5902 17.2426H66.9931V30.834H63.6622V22.6026L60.6951 30.7957H58.1299L55.1819 22.6026V30.834H51.8511Z" fill="black"/>
<path d="M74.114 31.0637C73.042 31.0637 72.104 30.8404 71.3 30.3937C70.496 29.947 69.8707 29.3217 69.424 28.5177C68.9774 27.7137 68.754 26.7693 68.754 25.6846C68.754 24.5998 68.9774 23.6618 69.424 22.8706C69.8707 22.0666 70.4897 21.4412 71.2809 20.9946C72.0849 20.5351 73.0229 20.3054 74.0949 20.3054C75.1669 20.3054 76.0921 20.5351 76.8706 20.9946C77.6618 21.4412 78.268 22.0857 78.6892 22.928C79.1103 23.7703 79.3209 24.7721 79.3209 25.9334V26.546H72.1615C72.1998 27.2606 72.3976 27.7966 72.7549 28.154C73.125 28.4986 73.5972 28.6708 74.1715 28.6708C74.6054 28.6708 74.9691 28.5879 75.2626 28.422C75.5561 28.2433 75.7667 27.9562 75.8943 27.5606L79.1869 27.752C78.9061 28.824 78.3127 29.6471 77.4066 30.2214C76.5005 30.7829 75.403 31.0637 74.114 31.0637ZM72.1615 24.67H75.99C75.9645 23.9936 75.7795 23.4895 75.4349 23.1577C75.0903 22.8131 74.6437 22.6408 74.0949 22.6408C73.5717 22.6408 73.1314 22.8195 72.774 23.1768C72.4295 23.5342 72.2253 24.0319 72.1615 24.67Z" fill="black"/>
<path d="M84.6302 31.0637C83.7624 31.0637 83.0158 30.8467 82.3905 30.4128C81.7779 29.9662 81.2993 29.3408 80.9548 28.5368C80.6102 27.7328 80.4379 26.7821 80.4379 25.6846C80.4379 24.587 80.6102 23.6363 80.9548 22.8323C81.2993 22.0283 81.7843 21.4093 82.4096 20.9754C83.0477 20.5288 83.7879 20.3054 84.6302 20.3054C85.3704 20.3054 86.0021 20.4586 86.5253 20.7648C87.0486 21.0584 87.4442 21.4731 87.7122 22.0091V17.2426H91.0047V30.834H87.827L87.7696 29.3408C87.4888 29.8896 87.0741 30.3171 86.5253 30.6234C85.9766 30.9169 85.3448 31.0637 84.6302 31.0637ZM85.7788 28.6326C86.1999 28.6326 86.5508 28.5241 86.8316 28.3071C87.1251 28.0902 87.3421 27.7647 87.4825 27.3308C87.6356 26.8969 87.7122 26.3482 87.7122 25.6846C87.7122 25.0209 87.6356 24.4722 87.4825 24.0383C87.3421 23.6044 87.1251 23.2789 86.8316 23.062C86.5508 22.845 86.1999 22.7366 85.7788 22.7366C85.1789 22.7366 84.7004 23.0046 84.343 23.5406C83.9985 24.0638 83.8262 24.7785 83.8262 25.6846C83.8262 26.5651 84.0049 27.2798 84.3622 27.8286C84.7195 28.3646 85.1917 28.6326 85.7788 28.6326Z" fill="black"/>
<path d="M93.1247 30.834V20.5351H96.4172V30.834H93.1247ZM93.0672 19.3866V16.9363H96.4747V19.3866H93.0672Z" fill="black"/>
<path d="M101.723 31.0637C100.651 31.0637 99.7707 30.8148 99.0815 30.3171C98.3924 29.8194 98.0478 29.1303 98.0478 28.2497C98.0478 27.3436 98.3413 26.6417 98.9284 26.144C99.5154 25.6463 100.37 25.2826 101.494 25.0528L104.69 24.402C104.69 23.8022 104.556 23.3491 104.288 23.0428C104.033 22.7238 103.663 22.5643 103.178 22.5643C102.693 22.5643 102.31 22.6855 102.03 22.928C101.762 23.1577 101.589 23.4895 101.513 23.9234L98.2201 23.8086C98.4243 22.6217 98.9539 21.7411 99.809 21.1668C100.664 20.5926 101.787 20.3054 103.178 20.3054C104.786 20.3054 105.986 20.6691 106.777 21.3966C107.581 22.124 107.983 23.2087 107.983 24.6508V27.9051C107.983 28.2242 108.034 28.4347 108.136 28.5368C108.251 28.6389 108.404 28.69 108.596 28.69H108.844V30.834C108.742 30.8723 108.576 30.9042 108.347 30.9297C108.117 30.9552 107.894 30.968 107.677 30.968C107.281 30.968 106.898 30.9042 106.528 30.7765C106.158 30.6362 105.852 30.3937 105.609 30.0491C105.367 29.6918 105.246 29.1813 105.246 28.5177L105.494 28.7666C105.367 29.226 105.137 29.6344 104.805 29.9917C104.486 30.3363 104.071 30.6043 103.561 30.7957C103.05 30.9744 102.438 31.0637 101.723 31.0637ZM102.585 28.9197C102.993 28.9197 103.357 28.8367 103.676 28.6708C103.995 28.5049 104.244 28.2625 104.422 27.9434C104.601 27.6244 104.69 27.2287 104.69 26.7566V26.3354L102.7 26.7948C102.304 26.8842 101.991 27.0246 101.762 27.216C101.545 27.3946 101.436 27.6371 101.436 27.9434C101.436 28.2497 101.532 28.4922 101.723 28.6708C101.915 28.8367 102.202 28.9197 102.585 28.9197Z" fill="black"/>
<path d="M116.397 31.0637C115.67 31.0637 115.045 30.9169 114.521 30.6234C114.011 30.3171 113.609 29.8896 113.315 29.3408L113.258 30.834H110.08V17.2426H113.373V22.0091C113.654 21.5114 114.049 21.103 114.56 20.784C115.083 20.4649 115.696 20.3054 116.397 20.3054C117.265 20.3054 118.012 20.5288 118.637 20.9754C119.275 21.4221 119.767 22.0474 120.111 22.8514C120.468 23.6554 120.647 24.5998 120.647 25.6846C120.647 26.7693 120.468 27.7137 120.111 28.5177C119.767 29.3217 119.275 29.947 118.637 30.3937C118.012 30.8404 117.265 31.0637 116.397 31.0637ZM115.364 28.6326C115.925 28.6326 116.378 28.3773 116.723 27.8668C117.08 27.3436 117.259 26.6162 117.259 25.6846C117.259 24.7402 117.087 24.0127 116.742 23.5023C116.41 22.9918 115.957 22.7366 115.383 22.7366C114.962 22.7366 114.598 22.8514 114.292 23.0811C113.985 23.3108 113.756 23.649 113.603 24.0957C113.449 24.5296 113.373 25.0592 113.373 25.6846C113.373 26.2971 113.449 26.8267 113.603 27.2734C113.756 27.7073 113.979 28.0455 114.273 28.288C114.579 28.5177 114.943 28.6326 115.364 28.6326Z" fill="black"/>
<path d="M127.188 31.0637C126.103 31.0637 125.153 30.8404 124.336 30.3937C123.532 29.947 122.9 29.3217 122.441 28.5177C121.994 27.7137 121.771 26.7693 121.771 25.6846C121.771 24.5998 121.994 23.6554 122.441 22.8514C122.9 22.0474 123.532 21.4221 124.336 20.9754C125.153 20.5288 126.103 20.3054 127.188 20.3054C128.273 20.3054 129.217 20.5288 130.021 20.9754C130.825 21.4221 131.451 22.0474 131.897 22.8514C132.357 23.6554 132.586 24.5998 132.586 25.6846C132.586 26.7693 132.357 27.7137 131.897 28.5177C131.451 29.3217 130.825 29.947 130.021 30.3937C129.217 30.8404 128.273 31.0637 127.188 31.0637ZM127.188 28.6326C127.826 28.6326 128.318 28.3773 128.662 27.8668C129.019 27.3564 129.198 26.6289 129.198 25.6846C129.198 24.7529 129.019 24.0319 128.662 23.5214C128.318 22.9982 127.826 22.7366 127.188 22.7366C126.537 22.7366 126.033 22.9982 125.676 23.5214C125.331 24.0319 125.159 24.7529 125.159 25.6846C125.159 26.6289 125.331 27.3564 125.676 27.8668C126.033 28.3773 126.537 28.6326 127.188 28.6326Z" fill="black"/>
<path d="M139.115 31.0637C138.03 31.0637 137.079 30.8404 136.263 30.3937C135.459 29.947 134.827 29.3217 134.368 28.5177C133.921 27.7137 133.698 26.7693 133.698 25.6846C133.698 24.5998 133.921 23.6554 134.368 22.8514C134.827 22.0474 135.459 21.4221 136.263 20.9754C137.079 20.5288 138.03 20.3054 139.115 20.3054C140.2 20.3054 141.144 20.5288 141.948 20.9754C142.752 21.4221 143.377 22.0474 143.824 22.8514C144.284 23.6554 144.513 24.5998 144.513 25.6846C144.513 26.7693 144.284 27.7137 143.824 28.5177C143.377 29.3217 142.752 29.947 141.948 30.3937C141.144 30.8404 140.2 31.0637 139.115 31.0637ZM139.115 28.6326C139.753 28.6326 140.244 28.3773 140.589 27.8668C140.946 27.3564 141.125 26.6289 141.125 25.6846C141.125 24.7529 140.946 24.0319 140.589 23.5214C140.244 22.9982 139.753 22.7366 139.115 22.7366C138.464 22.7366 137.96 22.9982 137.603 23.5214C137.258 24.0319 137.086 24.7529 137.086 25.6846C137.086 26.6289 137.258 27.3564 137.603 27.8668C137.96 28.3773 138.464 28.6326 139.115 28.6326Z" fill="black"/>
<path d="M146.141 30.834V17.2426H149.434V24.3254L152.86 20.5351H156.766L152.765 24.7274L156.861 30.834H153.301L150.659 26.546L149.434 27.8477V30.834H146.141Z" fill="black"/>
</svg>
